<svg xmlns="http://www.w3.org/2000/svg" xmlns:xlink="http://www.w3.org/1999/xlink" width="75" zoomAndPan="magnify" viewBox="0 0 56.25 56.249997" height="75" preserveAspectRatio="xMidYMid meet" version="1.0"><defs><clipPath id="04c8eee972"><path d="M 1 10.613281 L 54 10.613281 L 54 44.660156 L 1 44.660156 Z M 1 10.613281 " clip-rule="nonzero"/></clipPath><clipPath id="76ef36a89c"><path d="M 51 36 L 55.511719 36 L 55.511719 44.660156 L 51 44.660156 Z M 51 36 " clip-rule="nonzero"/></clipPath><clipPath id="d3e6cc232e"><path d="M 0 36 L 4 36 L 4 44.660156 L 0 44.660156 Z M 0 36 " clip-rule="nonzero"/></clipPath></defs><path fill="#ffffff" d="M 0.789062 37.933594 L 1.007812 38.585938 C 1.277344 38.46875 1.542969 38.351562 1.808594 38.230469 C 1.71875 38.007812 1.628906 37.800781 1.539062 37.601562 C 1.289062 37.714844 1.039062 37.824219 0.789062 37.933594 Z M 53.976562 37.601562 C 53.886719 37.800781 53.792969 38.007812 53.703125 38.230469 C 53.972656 38.351562 54.238281 38.46875 54.503906 38.585938 L 54.726562 37.933594 C 54.472656 37.824219 54.226562 37.714844 53.976562 37.601562 " fill-opacity="1" fill-rule="nonzero"/><g clip-path="url(#04c8eee972)"><path fill="#ffffff" d="M 33.75 43.691406 L 28.449219 23.433594 C 28.601562 23.871094 31.882812 33.175781 39.269531 36.542969 C 39.269531 36.542969 33.398438 39.273438 33.75 43.691406 Z M 22.292969 44.105469 L 27.757812 21.855469 L 33.21875 44.105469 Z M 16.246094 36.542969 C 23.632812 33.175781 26.910156 23.871094 27.0625 23.433594 L 21.765625 43.691406 C 22.113281 39.273438 16.246094 36.542969 16.246094 36.542969 Z M 49.214844 35.160156 C 49.234375 35.113281 49.253906 35.0625 49.269531 35.019531 C 36.835938 27.285156 30.738281 16.011719 28.632812 11.367188 C 28.292969 10.613281 27.222656 10.613281 26.878906 11.367188 C 24.777344 16.011719 18.675781 27.285156 6.242188 35.019531 C 6.261719 35.0625 6.28125 35.113281 6.300781 35.160156 C 4.761719 36.042969 3.164062 36.863281 1.539062 37.601562 C 1.628906 37.800781 1.71875 38.007812 1.808594 38.230469 C 3.425781 37.496094 5.011719 36.683594 6.539062 35.804688 C 7.132812 37.519531 7.878906 40.59375 7.621094 44.800781 L 47.890625 44.800781 C 47.636719 40.59375 48.378906 37.519531 48.972656 35.804688 C 50.503906 36.683594 52.089844 37.496094 53.703125 38.230469 C 53.792969 38.007812 53.886719 37.800781 53.976562 37.601562 C 52.347656 36.863281 50.75 36.042969 49.214844 35.160156 " fill-opacity="1" fill-rule="nonzero"/></g><g clip-path="url(#76ef36a89c)"><path fill="#ffffff" d="M 55.273438 37.261719 C 54.496094 38.15625 53.382812 42.042969 52.859375 44.28125 C 52.785156 44.609375 52.519531 44.820312 52.269531 44.761719 C 52.246094 44.753906 52.226562 44.746094 52.207031 44.738281 C 51.996094 44.644531 51.886719 44.355469 51.953125 44.058594 C 52.0625 43.59375 52.8125 40.433594 53.703125 38.230469 C 53.792969 38.007812 53.886719 37.800781 53.976562 37.601562 C 54.207031 37.101562 54.445312 36.683594 54.683594 36.414062 C 54.886719 36.179688 55.183594 36.179688 55.347656 36.414062 C 55.511719 36.648438 55.476562 37.03125 55.273438 37.261719 " fill-opacity="1" fill-rule="nonzero"/></g><g clip-path="url(#d3e6cc232e)"><path fill="#ffffff" d="M 3.304688 44.738281 C 3.285156 44.746094 3.265625 44.753906 3.242188 44.761719 C 2.992188 44.820312 2.730469 44.609375 2.652344 44.28125 C 2.132812 42.042969 1.015625 38.15625 0.238281 37.261719 C 0.0351562 37.03125 0 36.648438 0.167969 36.414062 C 0.328125 36.179688 0.625 36.179688 0.832031 36.414062 C 1.066406 36.683594 1.304688 37.101562 1.539062 37.601562 C 1.628906 37.800781 1.71875 38.007812 1.808594 38.230469 C 2.703125 40.433594 3.449219 43.59375 3.558594 44.058594 C 3.628906 44.355469 3.515625 44.644531 3.304688 44.738281 " fill-opacity="1" fill-rule="nonzero"/></g></svg>