<svg xmlns="http://www.w3.org/2000/svg" xmlns:xlink="http://www.w3.org/1999/xlink" width="1000" zoomAndPan="magnify" viewBox="0 0 750 374.999991" height="500" preserveAspectRatio="xMidYMid meet" version="1.0"><defs><g/><clipPath id="f2db1434fd"><path d="M 102 193 L 213.902344 193 L 213.902344 257 L 102 257 Z M 102 193 " clip-rule="nonzero"/></clipPath><clipPath id="1fed2fd5b1"><path d="M 113 86.59375 L 175 86.59375 L 175 202 L 113 202 Z M 113 86.59375 " clip-rule="nonzero"/></clipPath><clipPath id="0b63e65790"><path d="M 167 191 L 213.902344 191 L 213.902344 220 L 167 220 Z M 167 191 " clip-rule="nonzero"/></clipPath><clipPath id="62abc6f41d"><path d="M 102 230 L 149 230 L 149 258.34375 L 102 258.34375 Z M 102 230 " clip-rule="nonzero"/></clipPath></defs><g clip-path="url(#f2db1434fd)"><path fill="#ff7f00" d="M 213.855469 256.054688 L 213.855469 230.453125 L 102.824219 193.335938 L 102.824219 218.9375 Z M 213.855469 256.054688 " fill-opacity="1" fill-rule="nonzero"/></g><g clip-path="url(#1fed2fd5b1)"><path fill="#ff7f00" d="M 128.433594 193.355469 C 124.617188 189.054688 99.230469 159.675781 124.84375 134.230469 C 146.179688 113.042969 149.292969 95.246094 142.089844 86.597656 C 142.089844 86.597656 196.421875 108.945312 164.476562 160.8125 C 159.023438 169.621094 145.339844 180.019531 152.476562 201.460938 L 128.433594 193.359375 Z M 128.433594 193.355469 " fill-opacity="1" fill-rule="nonzero"/></g><path fill="#ff7f00" d="M 161.792969 200.410156 C 160.632812 196.042969 155.40625 186.574219 171.3125 167.730469 C 179.8125 157.695312 182.992188 142.789062 183.742188 137.1875 C 183.742188 137.1875 211.898438 153.347656 183.902344 192.875 Z M 161.792969 200.410156 " fill-opacity="1" fill-rule="nonzero"/><g clip-path="url(#0b63e65790)"><path fill="#ff7f00" d="M 167.769531 206.464844 L 213.851562 191.058594 L 213.851562 216.660156 L 206.035156 219.230469 L 167.765625 206.464844 Z M 167.769531 206.464844 " fill-opacity="1" fill-rule="nonzero"/></g><g clip-path="url(#62abc6f41d)"><path fill="#ff7f00" d="M 148.90625 242.945312 L 102.824219 258.328125 L 102.824219 232.726562 L 110.664062 230.175781 Z M 148.90625 242.945312 " fill-opacity="1" fill-rule="nonzero"/></g><g fill="#ffffff" fill-opacity="1"><g transform="translate(250.099943, 175.784965)"><g><path d="M 21.8125 0.921875 C 24.90625 0.921875 27.890625 0.328125 30.265625 -1.140625 C 33.90625 -3.359375 35.265625 -4.984375 35.265625 -6.296875 C 35.265625 -7.046875 34.828125 -7.65625 34.0625 -8.1875 C 32.0625 -9.609375 32.828125 -8.625 28.09375 -5.75 C 26.6875 -4.875 25.171875 -4.453125 23.484375 -4.453125 C 17.3125 -4.453125 13.015625 -10.25 13.015625 -18.828125 C 13.015625 -27.171875 17.03125 -33.53125 22.25 -33.53125 C 24.46875 -33.53125 27.171875 -32.390625 29.40625 -30.65625 C 32.109375 -28.53125 33.3125 -26.96875 33.75 -26.96875 C 34.125 -26.96875 33.90625 -28.3125 33.75 -31.734375 C 33.421875 -38.890625 33.90625 -38.46875 32.21875 -37.109375 C 31.734375 -36.734375 31.140625 -36.5625 30.4375 -36.5625 C 27.78125 -36.5625 25.609375 -38.890625 20.5625 -38.890625 C 10.421875 -38.890625 1.90625 -29.734375 1.90625 -18.9375 C 1.90625 -7.96875 10.796875 0.921875 21.8125 0.921875 Z M 21.8125 0.921875 "/></g></g></g><g fill="#ffffff" fill-opacity="1"><g transform="translate(287.690972, 175.784965)"><g><path d="M 11.5625 -3.25 C 11.71875 -6.015625 12.484375 -7.859375 12.796875 -8.84375 C 13.125 -9.875 13.125 -9.875 18.828125 -9.875 C 24.578125 -9.875 24.578125 -9.875 24.953125 -8.734375 L 25.328125 -7.65625 C 25.71875 -6.40625 26.15625 -4.609375 26.15625 -3.09375 C 26.25 -0.21875 25.171875 0 29.890625 0 L 33.25 0 C 35.203125 0 36.625 0.046875 37.65625 0.046875 C 39.328125 0.046875 39.921875 -0.046875 39.921875 -0.4375 C 39.921875 -0.875 39.109375 -1.625 38.078125 -3.203125 C 37 -4.78125 36.1875 -6.625 35.75 -7.859375 L 30.484375 -22.890625 C 25.21875 -37.96875 25.21875 -37.96875 19.640625 -37.96875 L 17.578125 -37.96875 C 15.84375 -37.96875 15.46875 -37.921875 15.46875 -37.265625 C 15.46875 -36.78125 15.671875 -35.96875 15.625 -34.71875 C 15.5625 -33.09375 15.078125 -31.25 14.703125 -30.046875 L 10.84375 -19.09375 C 7.046875 -8.1875 6.890625 -7.484375 4.71875 -3.46875 C 3.6875 -1.578125 2.71875 -0.65625 2.71875 -0.265625 C 2.71875 0.15625 3.796875 0 6.9375 0 L 9.28125 0 C 11.34375 0 11.65625 -0.046875 11.65625 -0.8125 C 11.65625 -1.296875 11.5 -2.0625 11.5625 -3.25 Z M 18.828125 -14.75 C 16.4375 -14.75 15.46875 -14.75 15.46875 -16 C 15.46875 -16.875 15.953125 -18.390625 16.8125 -20.9375 C 17.84375 -24.03125 18.390625 -25.609375 18.875 -25.609375 C 19.375 -25.609375 19.859375 -24.03125 20.890625 -20.9375 C 21.75 -18.390625 22.25 -16.875 22.25 -16 C 22.25 -14.75 21.265625 -14.75 18.828125 -14.75 Z M 18.828125 -14.75 "/></g></g></g><g fill="#ffffff" fill-opacity="1"><g transform="translate(330.326684, 175.784965)"><g><path d="M 14.921875 -11.9375 C 18.71875 0 18.71875 0 22.625 0 C 26.578125 0 26.578125 0 30.375 -11.9375 C 32.5 -18.5 33.46875 -21.421875 33.90625 -21.421875 C 34.234375 -21.421875 34.234375 -19.46875 34.234375 -15.890625 L 34.234375 -7.96875 C 34.171875 -6.78125 34.015625 -4.9375 33.53125 -3.3125 C 33.03125 -1.796875 32.609375 -0.96875 32.609375 -0.484375 C 32.609375 -0.046875 33.03125 0.046875 34.390625 0.046875 C 35.421875 0.046875 36.9375 0 39.21875 0 C 41.453125 0 43.015625 0.046875 44.046875 0.046875 C 45.46875 0.046875 45.890625 -0.046875 45.890625 -0.484375 C 45.890625 -0.921875 45.46875 -1.734375 45.03125 -3.140625 C 44.484375 -4.671875 44.328125 -6.453125 44.265625 -7.703125 L 44.265625 -29.734375 C 44.265625 -30.875 44.375 -32.765625 44.859375 -34.453125 C 45.40625 -36.234375 45.953125 -37.15625 45.953125 -37.59375 C 45.953125 -38.25 44.8125 -37.96875 40.90625 -37.96875 C 34.234375 -37.96875 34.234375 -37.96875 29.734375 -25.28125 C 27.453125 -18.9375 26.359375 -15.734375 25.21875 -15.734375 C 24.09375 -15.734375 22.953125 -18.9375 20.71875 -25.28125 C 16.21875 -37.96875 16.21875 -37.96875 9.328125 -37.96875 C 7.484375 -37.96875 6.234375 -38.03125 5.421875 -38.03125 C 3.203125 -38.03125 4.171875 -37.65625 5.09375 -34.609375 C 5.59375 -32.984375 5.75 -31.140625 5.8125 -29.953125 L 5.8125 -8.078125 C 5.75 -6.828125 5.59375 -4.984375 5.09375 -3.359375 C 4.5625 -1.625 4.015625 -0.765625 4.015625 -0.328125 C 4.015625 0.21875 4.984375 0 8.46875 0 C 10.09375 0 11.171875 0.046875 11.875 0.046875 C 13.78125 0.046875 12.859375 -0.328125 11.875 -3.140625 C 11.390625 -4.671875 11.171875 -6.453125 11.125 -7.703125 L 11.125 -15.78125 C 11.125 -19.421875 11.125 -21.421875 11.453125 -21.421875 C 11.875 -21.421875 12.859375 -18.5 14.921875 -11.9375 Z M 14.921875 -11.9375 "/></g></g></g><g fill="#ffffff" fill-opacity="1"><g transform="translate(380.882019, 175.784965)"><g><path d="M 16.984375 -3.53125 C 16.484375 -5.203125 16.390625 -7.109375 16.390625 -8.296875 L 16.390625 -10.25 C 16.390625 -12.265625 16.390625 -12.265625 20.296875 -12.265625 L 24.203125 -12.265625 C 31.1875 -12.265625 36.890625 -18.015625 36.890625 -25.125 C 36.890625 -32.21875 31.1875 -37.96875 24.203125 -37.96875 L 13.5625 -37.96875 C 10.796875 -37.96875 8.84375 -38.03125 7.484375 -38.03125 C 5.421875 -38.03125 4.828125 -37.859375 4.828125 -37.265625 C 4.828125 -36.734375 5.265625 -35.90625 5.703125 -34.453125 C 6.1875 -32.765625 6.34375 -30.875 6.34375 -29.734375 L 6.34375 -8.296875 C 6.34375 -7.109375 6.1875 -5.203125 5.703125 -3.53125 C 5.203125 -1.90625 4.71875 -1.03125 4.71875 -0.546875 C 4.71875 -0.046875 5.203125 0.046875 6.625 0.046875 C 7.65625 0.046875 9.171875 0 11.34375 0 C 13.515625 0 15.03125 0.046875 16.0625 0.046875 C 17.46875 0.046875 17.953125 -0.046875 17.953125 -0.546875 C 17.953125 -1.03125 17.46875 -1.90625 16.984375 -3.53125 Z M 21.3125 -33.09375 C 23.8125 -33.09375 25.828125 -29.515625 25.828125 -25.125 C 25.828125 -20.71875 23.8125 -17.140625 21.3125 -17.140625 L 18.828125 -17.140625 C 16.390625 -17.140625 16.390625 -17.140625 16.390625 -25.125 C 16.390625 -33.09375 16.390625 -33.09375 18.828125 -33.09375 Z M 21.3125 -33.09375 "/></g></g></g><g fill="#ffffff" fill-opacity="1"><g transform="translate(419.666419, 175.784965)"><g><path d="M 20.71875 0 C 24.09375 0 24.09375 0 29.296875 -14.921875 L 34.5625 -29.84375 C 34.984375 -31.03125 35.8125 -32.9375 36.890625 -34.5625 C 38.1875 -36.5625 39.109375 -37.4375 39.109375 -37.8125 C 39.109375 -38.25 37.859375 -37.96875 34.609375 -37.96875 L 32.21875 -37.96875 C 30.21875 -37.96875 29.890625 -37.859375 29.890625 -37.15625 C 29.890625 -36.734375 30.046875 -35.96875 30 -34.875 C 30 -33.3125 29.5625 -31.578125 29.1875 -30.328125 L 26.25 -21.421875 C 24.796875 -16.984375 24.03125 -14.8125 23.328125 -14.8125 C 22.5625 -14.8125 21.859375 -16.984375 20.390625 -21.421875 L 17.46875 -30.265625 C 17.09375 -31.515625 16.65625 -33.3125 16.65625 -34.828125 C 16.65625 -35.703125 16.703125 -36.34375 16.703125 -36.78125 C 16.703125 -37.859375 16.28125 -37.96875 12.859375 -37.96875 L 9.4375 -37.96875 C 6.890625 -37.96875 5.203125 -38.078125 4.125 -38.078125 C 1.625 -38.078125 2.71875 -37.59375 4.671875 -34.5625 C 5.75 -32.875 6.5625 -30.984375 7 -29.84375 L 12.203125 -14.921875 C 17.421875 0 17.421875 0 20.71875 0 Z M 20.71875 0 "/></g></g></g><g fill="#ffffff" fill-opacity="1"><g transform="translate(461.21726, 175.784965)"><g><path d="M 33.203125 -6.1875 C 33.3125 -8.25 33.46875 -9.5 33.46875 -10.140625 C 33.46875 -11.453125 32.9375 -10.203125 31.03125 -8.078125 C 29.453125 -6.34375 26.796875 -4.875 22.734375 -4.875 L 19.53125 -4.875 C 16.390625 -4.875 16.390625 -4.875 16.390625 -10.640625 C 16.390625 -14.59375 16.59375 -16.390625 18.234375 -16.390625 C 18.984375 -16.390625 20.078125 -15.953125 21.640625 -15.1875 C 23.171875 -14.4375 23.921875 -13.71875 24.296875 -13.71875 C 24.625 -13.71875 24.6875 -14.21875 24.6875 -15.671875 L 24.6875 -22.515625 C 24.6875 -23.8125 24.6875 -24.296875 24.359375 -24.296875 C 23.984375 -24.296875 23.171875 -23.546875 21.640625 -22.78125 C 20.078125 -21.96875 18.984375 -21.59375 18.234375 -21.59375 C 16.59375 -21.59375 16.390625 -23.375 16.390625 -27.28125 C 16.390625 -33.09375 16.390625 -33.09375 18.984375 -33.09375 L 21.640625 -33.09375 C 25.71875 -33.09375 28.3125 -31.578125 29.953125 -29.890625 C 31.359375 -28.421875 31.953125 -27.390625 32.21875 -27.390625 C 32.5 -27.390625 32.328125 -28.53125 32.109375 -31.734375 C 31.734375 -37.96875 31.734375 -37.96875 17.359375 -37.96875 C 13.5625 -37.96875 10.90625 -38.03125 9 -38.03125 C 5.859375 -38.03125 4.9375 -37.859375 4.9375 -37.046875 C 4.9375 -36.515625 5.3125 -35.75 5.703125 -34.5 C 6.1875 -32.765625 6.34375 -30.875 6.34375 -29.734375 L 6.34375 -8.296875 C 6.34375 -7.109375 6.1875 -5.203125 5.703125 -3.53125 C 5.3125 -2.28125 4.9375 -1.46875 4.9375 -0.921875 C 4.9375 -0.109375 5.90625 0.046875 9.28125 0.046875 C 11.234375 0.046875 14 0 17.90625 0 C 32.828125 0 32.828125 0 33.203125 -6.1875 Z M 33.203125 -6.1875 "/></g></g></g><g fill="#ffffff" fill-opacity="1"><g transform="translate(496.313065, 175.784965)"><g><path d="M 11.828125 -3.140625 C 11.34375 -4.671875 11.125 -6.453125 11.125 -7.703125 L 11.125 -17.09375 C 11.125 -21.421875 11.125 -23.765625 11.875 -23.765625 C 12.796875 -23.765625 14.75 -20.453125 19.046875 -13.234375 C 27.015625 0 27.015625 0 31.625 0 C 36.296875 0 36.296875 0 36.296875 -14.859375 L 36.296875 -29.734375 C 36.296875 -30.875 36.40625 -32.765625 36.890625 -34.5 C 37.4375 -36.34375 37.96875 -37.21875 37.96875 -37.65625 C 37.96875 -38.1875 37 -37.96875 33.578125 -37.96875 C 31.953125 -37.96875 30.921875 -38.03125 30.21875 -38.03125 C 28.375 -38.03125 29.34375 -37.65625 30.265625 -34.609375 C 30.765625 -32.984375 30.921875 -31.140625 30.984375 -29.953125 L 30.984375 -21.859375 C 30.984375 -18.234375 30.984375 -16.28125 30.328125 -16.28125 C 29.515625 -16.28125 27.71875 -19.265625 23.703125 -25.875 C 16.4375 -37.96875 16.4375 -37.96875 9.4375 -37.96875 C 7.546875 -37.96875 6.234375 -38.03125 5.421875 -38.03125 C 3.140625 -38.03125 4.171875 -37.65625 5.09375 -34.609375 C 5.59375 -32.984375 5.75 -31.140625 5.8125 -29.953125 L 5.8125 -8.03125 C 5.75 -6.828125 5.59375 -4.984375 5.09375 -3.359375 C 4.5625 -1.578125 4.015625 -0.765625 4.015625 -0.328125 C 4.015625 0.21875 4.984375 0 8.40625 0 C 10.09375 0 11.171875 0.046875 11.875 0.046875 C 13.671875 0.046875 12.75 -0.328125 11.828125 -3.140625 Z M 11.828125 -3.140625 "/></g></g></g><g fill="#ffffff" fill-opacity="1"><g transform="translate(538.352108, 175.784965)"><g><path d="M 3.359375 -29.890625 C 5.046875 -31.578125 7.59375 -33.09375 11.65625 -33.09375 L 12.53125 -33.09375 C 13.453125 -33.09375 13.453125 -33.09375 13.453125 -20.671875 L 13.453125 -8.296875 C 13.453125 -7.109375 13.296875 -5.203125 12.796875 -3.53125 C 12.3125 -1.90625 11.828125 -1.03125 11.828125 -0.546875 C 11.828125 -0.046875 12.3125 0.046875 13.71875 0.046875 C 14.75 0.046875 16.28125 0 18.4375 0 C 20.609375 0 22.140625 0.046875 23.171875 0.046875 C 24.578125 0.046875 25.0625 -0.046875 25.0625 -0.546875 C 25.0625 -1.03125 24.578125 -1.90625 24.09375 -3.53125 C 23.59375 -5.203125 23.484375 -7.109375 23.484375 -8.296875 L 23.484375 -20.671875 C 23.484375 -33.09375 23.484375 -33.09375 24.359375 -33.09375 L 25.28125 -33.09375 C 29.296875 -33.09375 31.953125 -31.625 33.53125 -29.890625 C 34.9375 -28.375 35.53125 -27.28125 35.8125 -27.28125 C 36.078125 -27.28125 35.90625 -28.53125 35.703125 -31.734375 C 35.3125 -37.96875 35.3125 -37.96875 18.4375 -37.96875 C 1.625 -37.96875 1.625 -37.96875 1.1875 -31.734375 C 1.078125 -29.734375 0.96875 -28.53125 0.96875 -27.890625 C 0.96875 -26.53125 1.46875 -27.78125 3.359375 -29.890625 Z M 3.359375 -29.890625 "/></g></g></g><g fill="#ffffff" fill-opacity="1"><g transform="translate(575.237953, 175.784965)"><g><path d="M 6.296875 -15.078125 C 6.296875 -5.203125 12.3125 0.921875 22.03125 0.921875 C 31.796875 0.921875 37.765625 -5.203125 37.765625 -15.078125 L 37.765625 -29.734375 C 37.765625 -30.875 37.921875 -32.765625 38.40625 -34.5 C 38.953125 -36.34375 39.546875 -37.21875 39.546875 -37.65625 C 39.546875 -38.1875 38.515625 -37.96875 35.09375 -37.96875 C 33.53125 -37.96875 32.5 -38.03125 31.796875 -38.03125 C 29.890625 -38.03125 30.921875 -37.59375 31.84375 -34.5 C 32.28125 -32.765625 32.4375 -30.875 32.4375 -29.734375 L 32.4375 -15.078125 C 32.4375 -8.578125 29.34375 -4.453125 24.40625 -4.453125 C 19.46875 -4.453125 16.328125 -8.578125 16.328125 -15.078125 L 16.328125 -29.734375 C 16.328125 -30.875 16.484375 -32.765625 16.984375 -34.5 C 17.46875 -36.078125 17.953125 -37 17.953125 -37.484375 C 17.953125 -37.96875 17.515625 -38.03125 16.109375 -38.03125 C 15.078125 -38.03125 13.5625 -37.96875 11.34375 -37.96875 C 9 -37.96875 7.4375 -38.03125 6.40625 -38.03125 C 5.09375 -38.03125 4.671875 -37.96875 4.671875 -37.546875 C 4.671875 -37.109375 5.15625 -36.234375 5.59375 -34.828125 C 6.078125 -33.3125 6.234375 -31.515625 6.296875 -30.265625 Z M 6.296875 -15.078125 "/></g></g></g><g fill="#ffffff" fill-opacity="1"><g transform="translate(618.795802, 175.784965)"><g><path d="M 16.984375 -3.53125 C 16.484375 -5.203125 16.390625 -7.109375 16.390625 -8.296875 L 16.390625 -11.71875 C 16.390625 -15.140625 16.390625 -15.140625 18.28125 -15.140625 C 20.1875 -15.140625 20.1875 -15.140625 21.8125 -11.71875 L 23.4375 -8.296875 C 23.984375 -7.109375 24.734375 -5.203125 25.0625 -3.53125 C 25.71875 0.109375 23.984375 0 32.5 0 C 35.15625 0 36.828125 0.046875 37.921875 0.046875 C 40.3125 0.046875 39.28125 -0.328125 37.15625 -2.828125 C 36.015625 -4.234375 34.984375 -5.90625 34.28125 -7.265625 L 32.109375 -11.828125 C 31.40625 -13.34375 31.078125 -14.265625 31.078125 -14.96875 C 31.078125 -16.390625 32.328125 -17.09375 34.453125 -20.5 C 35.484375 -22.25 36.125 -24.296875 36.125 -26.53125 C 36.125 -32.875 31.078125 -37.96875 24.84375 -37.96875 L 13.890625 -37.96875 C 11.015625 -37.96875 9 -38.03125 7.59375 -38.03125 C 5.484375 -38.03125 4.828125 -37.921875 4.828125 -37.265625 C 4.828125 -36.78125 5.265625 -35.90625 5.703125 -34.5 C 6.125 -32.765625 6.296875 -30.875 6.296875 -29.734375 L 6.296875 -8.296875 C 6.296875 -7.109375 6.125 -5.203125 5.703125 -3.53125 C 5.203125 -1.90625 4.71875 -1.03125 4.71875 -0.546875 C 4.71875 -0.046875 5.203125 0.046875 6.625 0.046875 C 7.65625 0.046875 9.171875 0 11.34375 0 C 13.515625 0 15.03125 0.046875 16.0625 0.046875 C 17.46875 0.046875 17.953125 -0.046875 17.953125 -0.546875 C 17.953125 -1.03125 17.46875 -1.90625 16.984375 -3.53125 Z M 21.3125 -33.09375 C 23.375 -33.09375 25.0625 -30.15625 25.0625 -26.53125 C 25.0625 -22.953125 23.375 -20.015625 21.3125 -20.015625 L 18.828125 -20.015625 C 16.390625 -20.015625 16.390625 -20.015625 16.390625 -26.53125 C 16.390625 -33.09375 16.390625 -33.09375 18.828125 -33.09375 Z M 21.3125 -33.09375 "/></g></g></g><g fill="#ffffff" fill-opacity="1"><g transform="translate(660.617846, 175.784965)"><g><path d="M 33.203125 -6.1875 C 33.3125 -8.25 33.46875 -9.5 33.46875 -10.140625 C 33.46875 -11.453125 32.9375 -10.203125 31.03125 -8.078125 C 29.453125 -6.34375 26.796875 -4.875 22.734375 -4.875 L 19.53125 -4.875 C 16.390625 -4.875 16.390625 -4.875 16.390625 -10.640625 C 16.390625 -14.59375 16.59375 -16.390625 18.234375 -16.390625 C 18.984375 -16.390625 20.078125 -15.953125 21.640625 -15.1875 C 23.171875 -14.4375 23.921875 -13.71875 24.296875 -13.71875 C 24.625 -13.71875 24.6875 -14.21875 24.6875 -15.671875 L 24.6875 -22.515625 C 24.6875 -23.8125 24.6875 -24.296875 24.359375 -24.296875 C 23.984375 -24.296875 23.171875 -23.546875 21.640625 -22.78125 C 20.078125 -21.96875 18.984375 -21.59375 18.234375 -21.59375 C 16.59375 -21.59375 16.390625 -23.375 16.390625 -27.28125 C 16.390625 -33.09375 16.390625 -33.09375 18.984375 -33.09375 L 21.640625 -33.09375 C 25.71875 -33.09375 28.3125 -31.578125 29.953125 -29.890625 C 31.359375 -28.421875 31.953125 -27.390625 32.21875 -27.390625 C 32.5 -27.390625 32.328125 -28.53125 32.109375 -31.734375 C 31.734375 -37.96875 31.734375 -37.96875 17.359375 -37.96875 C 13.5625 -37.96875 10.90625 -38.03125 9 -38.03125 C 5.859375 -38.03125 4.9375 -37.859375 4.9375 -37.046875 C 4.9375 -36.515625 5.3125 -35.75 5.703125 -34.5 C 6.1875 -32.765625 6.34375 -30.875 6.34375 -29.734375 L 6.34375 -8.296875 C 6.34375 -7.109375 6.1875 -5.203125 5.703125 -3.53125 C 5.3125 -2.28125 4.9375 -1.46875 4.9375 -0.921875 C 4.9375 -0.109375 5.90625 0.046875 9.28125 0.046875 C 11.234375 0.046875 14 0 17.90625 0 C 32.828125 0 32.828125 0 33.203125 -6.1875 Z M 33.203125 -6.1875 "/></g></g></g><g fill="#ff7f00" fill-opacity="1"><g transform="translate(335.148854, 228.908071)"><g><path d="M 13.296875 -23.578125 C 15.035156 -23.578125 16.742188 -23.222656 18.421875 -22.515625 C 20.109375 -21.804688 21.539062 -20.847656 22.71875 -19.640625 L 19.28125 -15.5625 C 18.519531 -16.5 17.609375 -17.238281 16.546875 -17.78125 C 15.492188 -18.332031 14.441406 -18.609375 13.390625 -18.609375 C 11.546875 -18.609375 10 -17.957031 8.75 -16.65625 C 7.5 -15.351562 6.875 -13.742188 6.875 -11.828125 C 6.875 -9.867188 7.5 -8.226562 8.75 -6.90625 C 10 -5.59375 11.546875 -4.9375 13.390625 -4.9375 C 14.367188 -4.9375 15.390625 -5.179688 16.453125 -5.671875 C 17.515625 -6.160156 18.457031 -6.832031 19.28125 -7.6875 L 22.75 -4.015625 C 21.476562 -2.722656 19.976562 -1.6875 18.25 -0.90625 C 16.53125 -0.125 14.8125 0.265625 13.09375 0.265625 C 9.570312 0.265625 6.640625 -0.878906 4.296875 -3.171875 C 1.960938 -5.460938 0.796875 -8.328125 0.796875 -11.765625 C 0.796875 -15.117188 1.988281 -17.925781 4.375 -20.1875 C 6.757812 -22.445312 9.734375 -23.578125 13.296875 -23.578125 Z M 13.296875 -23.578125 "/></g></g></g><g fill="#ff7f00" fill-opacity="1"><g transform="translate(369.953078, 228.908071)"><g><path d="M 17.875 -4.3125 L 7.65625 -4.3125 L 5.953125 0 L -0.171875 0 L 9.921875 -23.390625 L 16.03125 -23.390625 L 25.890625 0 L 19.546875 0 Z M 16.140625 -8.8125 L 12.796875 -17.46875 L 9.390625 -8.8125 Z M 16.140625 -8.8125 "/></g></g></g><g fill="#ff7f00" fill-opacity="1"><g transform="translate(407.36239, 228.908071)"><g><path d="M 28.03125 0 L 22.78125 0 L 22.75 -15.203125 L 17.140625 -2.34375 L 13.265625 -2.34375 L 7.65625 -15.203125 L 7.65625 0 L 2.34375 0 L 2.34375 -23.421875 L 8.859375 -23.421875 L 15.203125 -9.484375 L 21.546875 -23.421875 L 28.03125 -23.421875 Z M 28.03125 0 "/></g></g></g><g fill="#ff7f00" fill-opacity="1"><g transform="translate(449.447492, 228.908071)"><g><path d="M 2.34375 -23.390625 L 12.53125 -23.390625 C 15.507812 -23.390625 17.820312 -22.679688 19.46875 -21.265625 C 21.125 -19.847656 21.953125 -17.835938 21.953125 -15.234375 C 21.953125 -12.492188 21.125 -10.363281 19.46875 -8.84375 C 17.820312 -7.332031 15.507812 -6.578125 12.53125 -6.578125 L 8.28125 -6.578125 L 8.28125 0 L 2.34375 0 Z M 8.28125 -18.703125 L 8.28125 -11.265625 L 12.234375 -11.265625 C 13.546875 -11.265625 14.554688 -11.585938 15.265625 -12.234375 C 15.972656 -12.878906 16.328125 -13.8125 16.328125 -15.03125 C 16.328125 -16.238281 15.972656 -17.148438 15.265625 -17.765625 C 14.554688 -18.390625 13.546875 -18.703125 12.234375 -18.703125 Z M 8.28125 -18.703125 "/></g></g></g><g fill="#ff7f00" fill-opacity="1"><g transform="translate(483.850936, 228.908071)"><g><path d="M 11.328125 -23.65625 C 14.816406 -23.65625 17.890625 -22.785156 20.546875 -21.046875 L 18.3125 -16.40625 C 17.082031 -17.113281 15.765625 -17.695312 14.359375 -18.15625 C 12.960938 -18.613281 11.785156 -18.84375 10.828125 -18.84375 C 9.109375 -18.84375 8.25 -18.273438 8.25 -17.140625 C 8.25 -16.398438 8.671875 -15.804688 9.515625 -15.359375 C 10.367188 -14.921875 11.398438 -14.539062 12.609375 -14.21875 C 13.828125 -13.894531 15.039062 -13.503906 16.25 -13.046875 C 17.46875 -12.585938 18.5 -11.84375 19.34375 -10.8125 C 20.1875 -9.789062 20.609375 -8.503906 20.609375 -6.953125 C 20.609375 -4.703125 19.726562 -2.945312 17.96875 -1.6875 C 16.207031 -0.425781 13.972656 0.203125 11.265625 0.203125 C 9.328125 0.203125 7.410156 -0.128906 5.515625 -0.796875 C 3.617188 -1.460938 1.96875 -2.378906 0.5625 -3.546875 L 2.875 -8.125 C 4.050781 -7.09375 5.441406 -6.25 7.046875 -5.59375 C 8.648438 -4.9375 10.078125 -4.609375 11.328125 -4.609375 C 12.285156 -4.609375 13.03125 -4.78125 13.5625 -5.125 C 14.09375 -5.46875 14.359375 -5.972656 14.359375 -6.640625 C 14.359375 -7.285156 14.050781 -7.828125 13.4375 -8.265625 C 12.832031 -8.703125 12.070312 -9.023438 11.15625 -9.234375 C 10.238281 -9.441406 9.242188 -9.722656 8.171875 -10.078125 C 7.109375 -10.441406 6.117188 -10.832031 5.203125 -11.25 C 4.296875 -11.675781 3.535156 -12.351562 2.921875 -13.28125 C 2.304688 -14.207031 2 -15.316406 2 -16.609375 C 2 -18.742188 2.847656 -20.453125 4.546875 -21.734375 C 6.253906 -23.015625 8.515625 -23.65625 11.328125 -23.65625 Z M 11.328125 -23.65625 "/></g></g></g><g fill="#ff7f00" fill-opacity="1"><g transform="translate(517.052041, 228.908071)"><g><path d="M 8.28125 0 L 2.34375 0 L 2.34375 -23.390625 L 8.28125 -23.390625 Z M 8.28125 0 "/></g></g></g><g fill="#ff7f00" fill-opacity="1"><g transform="translate(539.365226, 228.908071)"><g><path d="M 20.203125 -18.609375 L 13.15625 -18.609375 L 13.15625 0 L 7.21875 0 L 7.21875 -18.609375 L 0.234375 -18.609375 L 0.234375 -23.421875 L 20.203125 -23.421875 Z M 20.203125 -18.609375 "/></g></g></g><g fill="#ff7f00" fill-opacity="1"><g transform="translate(571.464162, 228.908071)"><g><path d="M 20.640625 -18.703125 L 8.28125 -18.703125 L 8.28125 -14.0625 L 19.4375 -14.0625 L 19.4375 -9.390625 L 8.28125 -9.390625 L 8.28125 -4.671875 L 21.015625 -4.671875 L 21.015625 0 L 2.34375 0 L 2.34375 -23.390625 L 20.640625 -23.390625 Z M 20.640625 -18.703125 "/></g></g></g></svg>